<?xml version="1.0" encoding="iso-8859-1"?>
<svg fill="#3d3d3d" height="25" width="25" version="1.1" id="Capa_1" xmlns="http://www.w3.org/2000/svg" xmlns:xlink="http://www.w3.org/1999/xlink" 
	 viewBox="0 0 296.991 296.991" xml:space="preserve">
<path d="M281.991,133.496h-13.445c-6.8-54.74-50.31-98.25-105.05-105.05V15c0-8.284-6.716-15-15-15c-8.284,0-15,6.716-15,15v13.446
	c-54.74,6.8-98.25,50.31-105.05,105.05H15.001c-8.284,0-15,6.716-15,15c0,8.284,6.716,15,15,15h13.445
	c6.8,54.74,50.31,98.25,105.05,105.05v13.445c0,8.284,6.716,15,15,15c8.284,0,15-6.716,15-15v-13.445
	c54.74-6.8,98.25-50.31,105.05-105.05h13.445c8.284,0,15-6.716,15-15C296.991,140.212,290.275,133.496,281.991,133.496z
	 M163.496,238.232V191c0-8.284-6.716-15-15-15c-8.284,0-15,6.716-15,15v47.232c-38.172-6.36-68.376-36.564-74.736-74.736h47.231
	c8.284,0,15-6.716,15-15c0-8.284-6.716-15-15-15H58.76c6.36-38.172,36.564-68.376,74.736-74.736v47.231c0,8.284,6.716,15,15,15
	c8.284,0,15-6.716,15-15V58.76c38.172,6.36,68.376,36.564,74.736,74.736h-47.231c-8.284,0-15,6.716-15,15c0,8.284,6.716,15,15,15
	h47.231C231.872,201.668,201.667,231.872,163.496,238.232z"/>
</svg>